<?xml version="1.0" standalone="no"?>
<svg xmlns="http://www.w3.org/2000/svg" viewBox="0 0 94.918 109.601" width="94.918" height="109.601"><polygon fill="#0b6e4f" points="94.918,27.40025 94.918,82.20075 47.459,109.601 0,82.20075 0,27.40025 47.459,0"></polygon><path fill="white" fill-rule="nonzero" d="M0.53 19.99L0.53 19.99L0 19.99Q0.11 18.73 1.48 12.59Q2.86 6.44 3.19 3.39L3.19 3.39Q3.19 2.94 2.90 2.31Q2.60 1.68 2.30 1.29L2.30 1.29L2.02 0.90L2.10 0.48Q3.67 0 7.50 0L7.50 0Q7.87 0.67 7.87 1.92Q7.87 3.16 6.47 8.93L6.47 8.93L6.61 8.93Q9.10 8.93 10.18 7.04Q11.26 5.15 11.79 0.67L11.79 0.67Q13.78 0 15.96 0L15.96 0Q16.02 0.20 16.00 0.95Q15.99 1.71 15.71 2.90Q15.43 4.09 14.88 5.40Q14.34 6.72 13.29 7.88Q12.24 9.04 10.86 9.74L10.86 9.74Q12.49 15.29 13.66 16.97L13.66 16.97Q14.17 17.67 14.45 17.67L14.45 17.67Q14.95 17.67 16.02 17.16L16.02 17.16L16.35 17.00L17.00 18.03Q15.96 18.98 14.60 19.60Q13.24 20.22 12.04 20.22Q10.84 20.22 10.15 19.26Q9.46 18.31 9.00 16.90Q8.54 15.48 8.04 13.55Q7.53 11.62 7.36 10.64L7.36 10.64Q7.11 10.67 6.05 10.67L6.05 10.67Q4.40 17.67 4.40 19.43L4.40 19.43Q3.30 19.99 0.53 19.99Z" transform="translate(38.961, 23.5)"></path><g fill="white" color="white" transform="translate(25.459000000000003 51.715999999999994) scale(0.8461539)"><svg width="52.0" height="43.0" x="0.0" y="0.0" viewBox="0 0 52 43"><path fill="currentColor" fill-rule="evenodd" d="M49.042 39.694c-.449.449-5.2-.09-6.097-.09H21.069c-6.007 0-12.91.27-18.648.27.18-5.917.269-11.835.269-17.752 7.441-.18 14.972-.18 22.414-.09-2.062 2.242-3.138 4.931-5.38 7.531-.807.988.449 2.242 1.435 1.436 1.883-1.524 2.51-3.587 3.765-5.559.538-.896 1.255-1.614 1.973-2.152 1.076.896 1.882 2.062 2.69 3.138.896 1.344 1.524 3.137 2.689 4.303.717.628 2.152.27 2.062-.897-.269-1.972-1.793-3.855-2.959-5.379a23.186 23.186 0 0 0-1.882-2.15c6.276.267 12.73.805 19.006.536l.27 8.07c0 1.523.09 3.048.09 4.573 0 .537.536 3.944.179 4.212zm-23.49-20.172c-.717-.09-1.435-.538-2.062-.896-1.973-1.076-3.586-1.973-3.138-4.304.269-1.703 1.076-2.241 2.69-1.703 2.062.718 2.33 3.675 2.51 5.558v1.345zm1.972.628c.09-2.062.897-3.856 2.51-5.38 2.6-2.42 3.049 1.166 1.704 2.69-.986 1.076-2.6 1.704-3.856 2.42-.089.09-.268.18-.358.27zm5.559-17.393c2.241 0 4.483 0 6.814.09 1.793 0 4.214-.36 5.916.089 2.601.717 1.973 6.186 2.153 8.427l.537 9.683c-5.648-.717-11.386-.717-17.124-.717 0 0 .09 0 .09-.09 2.24-1.523 5.11-4.303 4.034-7.35-.986-3.05-4.035-1.884-5.917-.449a11.648 11.648 0 0 0-2.69 2.868c-.359-1.882-1.165-3.676-2.958-4.393-1.703-.716-4.214-.268-5.469 1.166-2.152 2.779.448 6.365 3.586 8.158-6.455-.09-12.91 0-19.276.27.09-5.827.09-11.746 0-17.573 5.2-.09 10.31-.18 15.51-.18h14.794zM51.82 36.736c-.09-3.675-.09-7.352-.27-11.028-.268-6.903-.447-13.896-1.255-20.8-.537-4.93-3.496-4.841-7.8-4.841-5.2-.09-10.4-.09-15.6 0-8.517.09-17.034.18-25.551.359C.628.426 0 1.053 0 1.77c.18 13 .09 26 .18 39-.27.718.09 1.614 1.075 1.614 5.918 0 13.359.27 19.814.27 5.648 0 11.296 0 17.035-.09h7.62c1.524 0 3.945.448 5.2-.538 1.613-1.344.897-3.676.897-5.29z"></path></svg></g></svg>